{
  "accessors": [
    {
      "bufferView": 2,
      "componentType": 5126,
      "count": 65533,
      "max": [
        16.834733963012695,
        13.065399169921875,
        14.046164512634277
      ],
      "min": [
        -9.238807678222656,
        -11.168193817138672,
        -5.867332175668594e-10
      ],
      "type": "VEC3"
    },
    {
      "bufferView": 2,
      "byteOffset": 786396,
      "componentType": 5126,
      "count": 65533,
      "max": [
        1.0,
        0.9999958276748657,
        1.0
      ],
      "min": [
        -0.9999919533729553,
        -0.9999984502792358,
        -1.0
      ],
      "type": "VEC3"
    },
    {
      "bufferView": 1,
      "componentType": 5126,
      "count": 65533,
      "max": [
        0.9291024208068848,
        0.9898473024368286
      ],
      "min": [
        0.005444411188364029,
        0.003522038459777832
      ],
      "type": "VEC2"
    },
    {
      "bufferView": 1,
      "byteOffset": 524264,
      "componentType": 5126,
      "count": 65533,
      "max": [
        0.9353929758071899,
        0.9912109375
      ],
      "min": [
        0.1044921875,
        0.1558830738067627
      ],
      "type": "VEC2"
    },
    {
      "bufferView": 0,
      "componentType": 5125,
      "count": 76989,
      "type": "SCALAR"
    },
    {
      "bufferView": 2,
      "byteOffset": 1572792,
      "componentType": 5126,
      "count": 65533,
      "max": [
        16.143613815307617,
        14.070610046386719,
        12.73620891571045
      ],
      "min": [
        -9.248114585876465,
        -12.197245597839355,
        -0.030355358496308327
      ],
      "type": "VEC3"
    },
    {
      "bufferView": 2,
      "byteOffset": 2359188,
      "componentType": 5126,
      "count": 65533,
      "max": [
        0.9999964833259583,
        0.9999948143959045,
        1.0
      ],
      "min": [
        -0.9999017119407654,
        -0.9999959468841553,
        -1.0
      ],
      "type": "VEC3"
    },
    {
      "bufferView": 1,
      "byteOffset": 1048528,
      "componentType": 5126,
      "count": 65533,
      "max": [
        0.9923105239868164,
        0.9859040975570679
      ],
      "min": [
        0.1281726211309433,
        0.003522038459777832
      ],
      "type": "VEC2"
    },
    {
      "bufferView": 1,
      "byteOffset": 1572792,
      "componentType": 5126,
      "count": 65533,
      "max": [
        0.499298632144928,
        0.704833984375
      ],
      "min": [
        0.1044921875,
        0.14481592178344727
      ],
      "type": "VEC2"
    },
    {
      "bufferView": 0,
      "byteOffset": 307956,
      "componentType": 5125,
      "count": 65991,
      "type": "SCALAR"
    },
    {
      "bufferView": 2,
      "byteOffset": 3145584,
      "componentType": 5126,
      "count": 33894,
      "max": [
        14.467158317565918,
        13.692361831665039,
        13.752413749694824
      ],
      "min": [
        -7.28912878036499,
        -11.907526969909668,
        0.0007125630509108305
      ],
      "type": "VEC3"
    },
    {
      "bufferView": 2,
      "byteOffset": 3552312,
      "componentType": 5126,
      "count": 33894,
      "max": [
        0.9999796748161316,
        0.9999076128005981,
        0.9999176859855652
      ],
      "min": [
        -0.9998819231987,
        -0.9986291527748108,
        -0.9998794198036194
      ],
      "type": "VEC3"
    },
    {
      "bufferView": 1,
      "byteOffset": 2097056,
      "componentType": 5126,
      "count": 33894,
      "max": [
        0.4736173450946808,
        0.26582610607147217
      ],
      "min": [
        0.20607015490531921,
        0.003522038459777832
      ],
      "type": "VEC2"
    },
    {
      "bufferView": 1,
      "byteOffset": 2368208,
      "componentType": 5126,
      "count": 33894,
      "max": [
        0.40665996074676514,
        0.6647961735725403
      ],
      "min": [
        0.31236732006073,
        0.17916226387023926
      ],
      "type": "VEC2"
    },
    {
      "bufferView": 0,
      "byteOffset": 571920,
      "componentType": 5125,
      "count": 33894,
      "type": "SCALAR"
    },
    {
      "bufferView": 2,
      "byteOffset": 3959040,
      "componentType": 5126,
      "count": 5922,
      "max": [
        9.765897750854492,
        9.22117805480957,
        9.933208465576172
      ],
      "min": [
        -7.189431667327881,
        -8.29068374633789,
        0.12583060562610626
      ],
      "type": "VEC3"
    },
    {
      "bufferView": 2,
      "byteOffset": 4030104,
      "componentType": 5126,
      "count": 5922,
      "max": [
        0.9999889135360718,
        0.9999851584434509,
        0.9997462034225464
      ],
      "min": [
        -0.9999719858169556,
        -0.9999962449073792,
        -0.9890070557594299
      ],
      "type": "VEC3"
    },
    {
      "bufferView": 1,
      "byteOffset": 2639360,
      "componentType": 5126,
      "count": 5922,
      "max": [
        0.9808754324913025,
        0.4918373227119446
      ],
      "min": [
        0.02664458006620407,
        0.012438426725566387
      ],
      "type": "VEC2"
    },
    {
      "bufferView": 1,
      "byteOffset": 2686736,
      "componentType": 5126,
      "count": 5922,
      "max": [
        0.19330546259880066,
        0.7206529378890991
      ],
      "min": [
        0.1806076318025589,
        0.7127079367637634
      ],
      "type": "VEC2"
    },
    {
      "bufferView": 0,
      "byteOffset": 707496,
      "componentType": 5125,
      "count": 7908,
      "type": "SCALAR"
    }
  ],
  "asset": {
    "extras": {
      "author": "Ti Mur (https://sketchfab.com/cgtimur)",
      "license": "CC-BY-NC-SA-4.0 (http://creativecommons.org/licenses/by-nc-sa/4.0/)",
      "source": "https://sketchfab.com/3d-models/forest-lighting-wip-d2f3efb998d6483d81ba62e9f16641d7",
      "title": "Forest Lighting (WIP)"
    },
    "generator": "Sketchfab-15.10.0",
    "version": "2.0"
  },
  "bufferViews": [
    {
      "buffer": 0,
      "byteLength": 739128,
      "name": "floatBufferViews",
      "target": 34963
    },
    {
      "buffer": 0,
      "byteLength": 2734112,
      "byteOffset": 739128,
      "byteStride": 8,
      "name": "floatBufferViews",
      "target": 34962
    },
    {
      "buffer": 0,
      "byteLength": 4101168,
      "byteOffset": 3473240,
      "byteStride": 12,
      "name": "floatBufferViews",
      "target": 34962
    }
  ],
  "buffers": [
    {
      "byteLength": 7574408,
      "uri": "scene.bin"
    }
  ],
  "extensionsUsed": [
    "KHR_materials_specular"
  ],
  "images": [
    {
      "uri": "textures/Base_Material_baseColor.png"
    },
    {
      "uri": "textures/Base_Material_emissive.png"
    },
    {
      "uri": "textures/VFX_Material_baseColor.png"
    }
  ],
  "materials": [
    {
      "alphaCutoff": 0.65,
      "alphaMode": "MASK",
      "doubleSided": true,
      "emissiveFactor": [
        1.0,
        1.0,
        1.0
      ],
      "emissiveTexture": {
        "index": 1,
        "texCoord": 1
      },
      "extensions": {
        "KHR_materials_specular": {
          "specularColorFactor": [
            1.0,
            1.0,
            1.0
          ],
          "specularFactor": 0.0
        }
      },
      "name": "Base_Material",
      "pbrMetallicRoughness": {
        "baseColorFactor": [
          0.0,
          0.0,
          0.0,
          1.0
        ],
        "baseColorTexture": {
          "index": 0
        },
        "metallicFactor": 0.0
      }
    },
    {
      "alphaCutoff": 0.6,
      "alphaMode": "MASK",
      "emissiveFactor": [
        1.0,
        1.0,
        1.0
      ],
      "emissiveTexture": {
        "index": 3,
        "texCoord": 1
      },
      "extensions": {
        "KHR_materials_specular": {
          "specularColorFactor": [
            1.0,
            1.0,
            1.0
          ],
          "specularFactor": 0.0
        }
      },
      "name": "VFX_Material",
      "pbrMetallicRoughness": {
        "baseColorFactor": [
          0.0,
          0.0,
          0.0,
          1.0
        ],
        "baseColorTexture": {
          "index": 2
        },
        "metallicFactor": 0.0
      }
    }
  ],
  "meshes": [
    {
      "name": "Base_Mesh_Base_Material_0",
      "primitives": [
        {
          "attributes": {
            "NORMAL": 1,
            "POSITION": 0,
            "TEXCOORD_0": 2,
            "TEXCOORD_1": 3
          },
          "indices": 4,
          "material": 0,
          "mode": 4
        }
      ]
    },
    {
      "name": "Base_Mesh_Base_Material_0",
      "primitives": [
        {
          "attributes": {
            "NORMAL": 6,
            "POSITION": 5,
            "TEXCOORD_0": 7,
            "TEXCOORD_1": 8
          },
          "indices": 9,
          "material": 0,
          "mode": 4
        }
      ]
    },
    {
      "name": "Base_Mesh_Base_Material_0",
      "primitives": [
        {
          "attributes": {
            "NORMAL": 11,
            "POSITION": 10,
            "TEXCOORD_0": 12,
            "TEXCOORD_1": 13
          },
          "indices": 14,
          "material": 0,
          "mode": 4
        }
      ]
    },
    {
      "name": "VFX_Mesh_VFX_Material_0",
      "primitives": [
        {
          "attributes": {
            "NORMAL": 16,
            "POSITION": 15,
            "TEXCOORD_0": 17,
            "TEXCOORD_1": 18
          },
          "indices": 19,
          "material": 1,
          "mode": 4
        }
      ]
    }
  ],
  "nodes": [
    {
      "children": [
        1
      ],
      "matrix": [
        1.0,
        0.0,
        0.0,
        0.0,
        0.0,
        2.220446049250313e-16,
        -1.0,
        0.0,
        0.0,
        1.0,
        2.220446049250313e-16,
        0.0,
        0.0,
        0.0,
        0.0,
        1.0
      ],
      "name": "Sketchfab_model"
    },
    {
      "children": [
        2
      ],
      "matrix": [
        0.009999999776482582,
        0.0,
        0.0,
        0.0,
        0.0,
        0.0,
        0.009999999776482582,
        0.0,
        0.0,
        -0.009999999776482582,
        0.0,
        0.0,
        0.0,
        0.0,
        0.0,
        1.0
      ],
      "name": "5e02c9e22c09485883e55c6d5bf1bded.fbx"
    },
    {
      "children": [
        3,
        7
      ],
      "name": "RootNode"
    },
    {
      "children": [
        4,
        5,
        6
      ],
      "matrix": [
        100.0,
        0.0,
        0.0,
        0.0,
        0.0,
        -2.8212996916465727e-05,
        -99.99999999999602,
        0.0,
        0.0,
        99.99999999999602,
        -2.8212996916465727e-05,
        0.0,
        0.0,
        0.0,
        0.0,
        1.0
      ],
      "name": "Base_Mesh"
    },
    {
      "mesh": 0,
      "name": "Base_Mesh_Base_Material_0"
    },
    {
      "mesh": 1,
      "name": "Base_Mesh_Base_Material_0"
    },
    {
      "mesh": 2,
      "name": "Base_Mesh_Base_Material_0"
    },
    {
      "children": [
        8
      ],
      "matrix": [
        100.0,
        0.0,
        0.0,
        0.0,
        0.0,
        -2.8212996916465727e-05,
        -99.99999999999602,
        0.0,
        0.0,
        99.99999999999602,
        -2.8212996916465727e-05,
        0.0,
        0.0,
        0.0,
        0.0,
        1.0
      ],
      "name": "VFX_Mesh"
    },
    {
      "mesh": 3,
      "name": "VFX_Mesh_VFX_Material_0"
    }
  ],
  "samplers": [
    {
      "magFilter": 9729,
      "minFilter": 9729,
      "wrapS": 10497,
      "wrapT": 10497
    },
    {
      "magFilter": 9729,
      "minFilter": 9987,
      "wrapS": 10497,
      "wrapT": 10497
    }
  ],
  "scene": 0,
  "scenes": [
    {
      "name": "Sketchfab_Scene",
      "nodes": [
        0
      ]
    }
  ],
  "textures": [
    {
      "sampler": 0,
      "source": 0
    },
    {
      "sampler": 0,
      "source": 1
    },
    {
      "sampler": 0,
      "source": 2
    },
    {
      "sampler": 1,
      "source": 1
    }
  ]
}
